<svg xmlns="http://www.w3.org/2000/svg" width="24" height="24" viewBox="0 0 24 24" fill="none">
<path fill-rule="evenodd" clip-rule="evenodd" d="M21.4549 5.41575C21.6471 5.70687 21.6151 6.10248 21.3588 6.35876L12.1664 15.5511C12.0722 15.6454 11.9546 15.7128 11.8256 15.7465L7.99722 16.7465C7.87235 16.7791 7.74364 16.7784 7.62271 16.7476C7.49414 16.7149 7.37437 16.6482 7.27736 16.5511C7.08908 16.3629 7.01474 16.0889 7.08203 15.8313L8.08203 12.0028C8.1115 11.89 8.16679 11.7786 8.24328 11.6912L17.4697 2.46967C17.5505 2.38891 17.6478 2.32846 17.7537 2.29163C17.8322 2.26432 17.9154 2.25 18.0001 2.25C18.199 2.25 18.3897 2.32902 18.5304 2.46967L21.3588 5.2981C21.3954 5.33471 21.4275 5.37416 21.4549 5.41575ZM19.7678 5.82843L18.0001 4.06066L9.4819 12.5788L8.85691 14.9716L11.2497 14.3466L19.7678 5.82843Z" fill="#191B1C"/>
<path d="M19.6414 17.1603C19.9148 14.8227 20.0018 12.4688 19.9024 10.1208C19.8976 10.0084 19.9399 9.89898 20.0195 9.81942L21.0028 8.83609C21.1237 8.71519 21.3303 8.79194 21.3416 8.96254C21.5265 11.7522 21.4564 14.5545 21.1313 17.3346C20.8947 19.3571 19.2704 20.9421 17.2583 21.167C13.7917 21.5544 10.2084 21.5544 6.74183 21.167C4.72977 20.9421 3.10544 19.3571 2.86889 17.3346C2.45435 13.7903 2.45435 10.2097 2.86889 6.66543C3.10544 4.6429 4.72977 3.05789 6.74183 2.83301C9.37158 2.5391 12.0685 2.46815 14.7307 2.62016C14.9023 2.62996 14.9805 2.83757 14.859 2.95909L13.8664 3.95165C13.7877 4.03034 13.6798 4.07261 13.5686 4.06885C11.3422 3.99376 9.10061 4.07872 6.90844 4.32373C5.57833 4.47239 4.51285 5.522 4.35873 6.83968C3.95773 10.2682 3.95773 13.7318 4.35873 17.1603C4.51285 18.478 5.57833 19.5276 6.90844 19.6763C10.2643 20.0513 13.7359 20.0513 17.0917 19.6763C18.4218 19.5276 19.4873 18.478 19.6414 17.1603Z" fill="#191B1C"/>
</svg>